<?xml version="1.0" standalone="no"?>
<!DOCTYPE svg PUBLIC "-//W3C//DTD SVG 1.1//EN" "http://www.w3.org/Graphics/SVG/1.1/DTD/svg11.dtd" >
<svg xmlns="http://www.w3.org/2000/svg">
<metadata>
Created by FontPrep 20130207 at Thu Oct 15 10:13:10 2015
 By Drew Rios
(c) 2015 Microsoft Corporation. All Rights Reserved.
</metadata>
<defs>
<font id="615b664cc939e6e0c0dcd0c0594b62e5" horiz-adv-x='1024' >
  <font-face 
    font-family="MSBIKPI"
    font-weight="400"
    font-stretch="normal"
    units-per-em="2048"
    panose-1="5 10 1 2 1 1 1 1 1 1"
    ascent="2048"
    descent="0"
    bbox="0 -5.97386 2050 2049"
    underline-thickness="119"
    underline-position="-119"
    unicode-range="U+000D-E738"
  />
<missing-glyph horiz-adv-x="561" 
 />
    <glyph glyph-name=".notdef" horiz-adv-x="561" 
 />
    <glyph glyph-name=".null" horiz-adv-x="0" 
 />
    <glyph glyph-name="nonmarkingreturn" unicode="&#xd;" horiz-adv-x="0" 
 />
    <glyph glyph-name="space" unicode=" " horiz-adv-x="561" 
 />
    <glyph glyph-name="uniE700" unicode="&#xe700;" horiz-adv-x="2047" 
d="M1907 1542q140 -250 140 -518q0 -419 -300 -725q-92 -92 -203 -158t-247 -104q-182 -55 -399 -29.5t-390 133.5q-236 133 -366 366q-142 231 -142 517q0 418 300 724q93 93 208 158q229 142 512 142t513 -136t374 -370z" />
    <glyph glyph-name="uniE70D" unicode="&#xe70d;" 
d="M450 0h-128v2043l1405 -712l-1277 -671v-660z" />
    <glyph glyph-name="uniE70E" unicode="&#xe70e;" horiz-adv-x="2046" 
d="M1134 1025l343 341l-111 111l-341 -341l-343 341l-113 -111l343 -341l-343 -343l113 -111l343 341l341 -341l111 111zM745 2009q135 39 277 39t277 -38q254 -72 448 -263q153 -160 198 -273t73 -210t28 -239t-36 -275q-49 -154 -108 -251q-59 -98 -155 -200
q-206 -197 -451 -261q-183 -58 -331.5 -39.5t-253.5 49.5q-216 64 -412 251q-98 104 -158 205q-61 101 -107 246q-34 127 -34 274t36 275q70 247 263 448q192 188 446 262z" />
    <glyph glyph-name="uniE70F" unicode="&#xe70f;" 
d="M1131 1643h-213v-897h213v897zM1131 618h-213v-212h213v212zM2048 957.5q0 -357.5 -300 -657.5q-95 -95 -208 -160q-226 -140 -516 -140q-142 0 -274 37q-396 111 -610 470q-66 111 -103 243t-37 275q0 144 38 278q72 252 262 446q191 191 452 263q130 36 346.5 36
t441.5 -139q227 -131 369 -369q139 -225 139 -582.5z" />
    <glyph glyph-name="uniE710" unicode="&#xe710;" horiz-adv-x="2047" 
d="M1626 1363l-135 137l-659 -661l-275 276l-136 -136l411 -411zM1127 2048q241 0 515.5 -209.5t366.5 -539.5q38 -135 38 -276t-38 -276q-69 -245 -262 -446q-307 -301 -652.5 -301t-587.5 140q-230 140 -367 369q-140 236 -140 515q0 142 36 270t87 216q150 256 352 377
q149 89 280 125t372 36z" />
    <glyph glyph-name="uniE712" unicode="&#xe712;" horiz-adv-x="2047" 
d="M1410 1412q98 -106 141 -240q18 -65 18 -181t-73 -242q-73 -125 -198 -195q-49 -31 -124 -53q-75 -23 -150 -23q-144 0 -262 67q-202 116 -267 334q-18 69 -18 145q0 154 54 245q54 90 104 143q173 160 390.5 160t384.5 -160z" />
    <glyph glyph-name="uniE712.001" unicode="&#xe713;" horiz-adv-x="2049" 
d="M2043 0h-2038q-5 0 -5 4v2040q0 4 5 4h2038q6 0 6 -4v-2040q0 -4 -6 -4z" />
    <glyph glyph-name="uniE713" unicode="&#xe714;" horiz-adv-x="2049" 
d="M2049 1855l-827 -831l827 -828l-196 -196l-829 828l-828 -828l-196 196l828 828l-828 831l196 194l828 -827l829 827z" />
    <glyph glyph-name="uniE715" unicode="&#xe715;" 
d="M878 0v292h292v-292h-292zM878 586v1461h292v-1461h-292z" />
    <glyph glyph-name="uniE718" unicode="&#xe718;" 
d="M2048 1571l-1321 -1321l-727 727l187 191l540 -541l1132 1131z" />
    <glyph glyph-name="uniE719" unicode="&#xe719;" horiz-adv-x="2046" 
d="M2046 1024l-1022 -1024l-1024 1024l1024 1024z" />
    <glyph glyph-name="uniE71B" unicode="&#xe71b;" horiz-adv-x="2047" 
d="M2046 130h-2046l1023 1772z" />
    <glyph glyph-name="uniE71C" unicode="&#xe71c;" 
d="M628 346q134 107 396 307q50 -39 99 -77t99 -76t98.5 -76.5t99.5 -77.5q-58 192 -155 493q98 71 226 172t180 140h-501q-19 58 -36.5 116.5t-35.5 116.5t-37 115.5t-37 117.5q-69 -218 -146 -466h-502l405 -312q-20 -62 -40 -123t-39 -123t-37 -123t-37 -124zM1415 791
l248 -791l-639 490l-639 -490l247 791l-632 488h784l240 767l238 -767h784z" />
    <glyph glyph-name="uniE721" unicode="&#xe721;" 
d="M1024 490l-641 -490l249 793l-632 486h784l240 767v-1556z" />
    <glyph glyph-name="uniE724" unicode="&#xe724;" 
d="M1024 2046l240 -767h784l-632 -486l249 -793l-641 490l-641 -490l249 793l-632 486h784z" />
    <glyph glyph-name="uniE700.001" unicode="&#xe725;" 
d="M0 213v440h292v-440h-292z" />
    <glyph glyph-name="uniE700.007" unicode="&#xe726;" 
d="M439 213v731h292v-731h-292zM0 213v440h292v-440h-292z" />
    <glyph glyph-name="uniE700.006" unicode="&#xe727;" 
d="M878 213v1024h292v-1024h-292zM439 213v731h292v-731h-292zM0 213v440h292v-440h-292z" />
    <glyph glyph-name="uniE700.005" unicode="&#xe728;" 
d="M1317 213v1318h293v-1318h-293zM878 213v1024h292v-1024h-292zM439 213v731h292v-731h-292zM0 213v440h292v-440h-292z" />
    <glyph glyph-name="uniE700.004" unicode="&#xe729;" 
d="M1757 1823h291v-1610h-291v1610zM1317 213v1318h293v-1318h-293zM878 213v1024h292v-1024h-292zM439 213v731h292v-731h-292zM0 213v440h292v-440h-292z" />
    <glyph glyph-name="uniE700.003" unicode="&#xe730;" 
d="M2048 961v-961h-960v961h960zM2048 2048v-960h-960v960h960zM961 961v-961h-961v961h961zM961 2048v-960h-961v960h961z" />
    <glyph glyph-name="uniE700.008" unicode="&#xe731;" 
d="M2048 961v-961h-960v961h960zM961 961v-961h-961v961h961zM961 2048v-960h-961v960h961z" />
    <glyph glyph-name="uniE700.010" unicode="&#xe732;" 
d="M961 2048v-960h-961v960h961z" />
    <glyph glyph-name="uniE700.009" unicode="&#xe733;" 
d="M2048 961v-961h-960v961h960zM961 961v-961h-961v961h961z" />
    <glyph glyph-name="uniE700.014" unicode="&#xe734;" horiz-adv-x="2047" 
d="M1920 1024q0 126 -24 210q-58 205 -127.5 293.5t-110.5 130.5q-174 170 -396 230q-107 32 -239 32q-131 0 -243 -33q-225 -66 -389 -229q-213 -213 -238.5 -392.5t-25.5 -336t123 -357.5q115 -203 322 -323q206 -121 448 -121t457 122q99 59 161 120q181 180 251 415
q31 113 31 239zM1024 2048q136 0 338 -55t385 -246q193 -191 264 -451q37 -122 37 -272t-36 -276q-76 -263 -265 -448q-177 -185 -452 -264q-131 -36 -342 -36t-449 140q-163 95 -333.5 312t-170.5 571q0 274 139 519q63 107 159 204t181 146t146 75t162 53.5t237 27.5z" />
    <glyph glyph-name="uniE700.013" unicode="&#xe735;" horiz-adv-x="2047" 
d="M1907 1542q140 -250 140 -518q0 -419 -300 -725q-92 -92 -203 -158t-247 -104q-182 -55 -399 -29.5t-390 133.5q-236 133 -366 366q-142 231 -142 517q0 418 300 724q93 93 208 158q229 142 512 142t513 -136t374 -370z" />
    <glyph glyph-name="uniE700.012" unicode="&#xe736;" horiz-adv-x="2047" 
d="M127 1024v-3h902l3 899h-8q-239 0 -449 -121q-105 -60 -185 -140q-80 -81 -124 -157q-138 -238 -139 -478zM2050 884.5q0 -282.5 -302 -584.5q-184 -192 -452 -264q-130 -36 -272 -36q-424 0 -724 300q-101 105 -148 184q-152 256 -152 606.5t300 657.5q101 101 208 160
q231 140 515 140t519 -140q114 -64 206 -160q194 -192 265 -452q37 -129 37 -411.5z" />
    <glyph glyph-name="uniE700.011" unicode="&#xe737;" horiz-adv-x="2047" 
d="M1025 1919q-438 0 -667 -292t-229 -604q0 -361 260 -634q275 -262 636 -262h7l-2 894l2 898h-7zM2049 1025q0 -145 -36 -275q-37 -130 -87 -215q-233 -392 -629 -499q-131 -36 -273 -36t-272 35t-242 102q-113 67 -185 138q-125 126 -187.5 234.5t-99.5 240.5
q-38 132 -38 274t28 240q46 164 145.5 335t333.5 309q237 140 517 140q289 0 518 -141q291 -166 372 -356t98 -256q37 -126 37 -270z" />
    <glyph glyph-name="uniE700.002" unicode="&#xe738;" horiz-adv-x="2047" 
d="M1919 1021h-891v897h-5q-129 0 -242 -33q-334 -96 -532 -408q-121 -213 -121 -455.5t121 -450.5q127 -209 322 -320q204 -123 453.5 -123t450.5 123q100 58 181 139q178 183 230 394q33 113 33 237zM1568 156q-269 -157 -544 -156q-139 0 -267 35q-271 74 -457 265
q-135 133 -217.5 320.5t-82.5 402.5q0 268 140 518q76 122 141 188q259 258 464.5 288.5t383.5 30.5t410 -141q114 -67 204 -157t164 -209q141 -244 141 -455t-37 -339t-106 -243t-160 -207q-92 -91 -177 -141z" />
  </font>
</defs>
</svg>
