<svg version="1.1" xmlns="http://www.w3.org/2000/svg" xmlns:xlink="http://www.w3.org/1999/xlink" width="20" height="20" viewBox="0 0 20 20">
<g id="AsterPlot">
<path id="Фігура-74" d="M11.988,11.997 L11.988,9.014 L9.005,9.014 L9.005,11.997 L11.988,11.997 z" fill="#FFFFFF" />
<path id="Фігура-74-копія" d="M10.988,12.981 C10.988,12.981 10.988,15.598 10.988,15.598 C10.991,15.598 10.994,15.598 10.998,15.598 C13.537,15.598 15.594,13.542 15.594,11.000 C15.594,11.000 15.594,10.997 15.594,10.996 C15.594,10.996 13.004,10.996 13.004,10.996 L13.004,12.981 L10.988,12.981 z" fill="#BEBEBE" />
<path id="Фігура-74-копія-" d="M13.004,10.013 L15.484,10.013 C15.484,10.013 17.544,10.013 17.544,10.013 C17.544,10.008 17.547,10.002 17.547,9.994 C17.547,6.388 14.623,3.464 11.015,3.464 C11.008,3.464 10.997,3.464 10.988,3.464 C10.988,3.464 10.988,6.406 10.988,6.406 L10.988,7.965 L13.004,7.965 L13.004,10.013 z" fill="#70A593" />
<path id="Фігура-74-копія-" d="M7.990,7.996 L10.005,7.996 L10.005,6.515 L10.005,3.549 C10.005,3.549 10.005,0.978 10.005,0.978 C10.002,0.978 9.997,0.978 9.992,0.978 C5.018,0.978 0.983,5.013 0.983,9.988 C0.983,9.996 0.984,10.004 0.984,10.013 C0.985,10.345 1.005,10.672 1.041,10.996 C1.542,15.498 5.359,18.998 9.992,18.998 C9.997,18.998 10.002,18.996 10.005,18.996 C10.005,18.996 10.005,16.441 10.005,16.441 L10.005,15.488 L10.005,12.981 L7.990,12.981 L7.990,7.996 z" fill="#CC6044" />
</g>
</svg>
